<svg width="123" height="17" viewBox="0 0 123 17" fill="none" xmlns="http://www.w3.org/2000/svg">
<path d="M120.635 9.08007L119.655 10.0401V9.40007C119.655 8.46673 119.388 7.74007 118.855 7.22007C118.321 6.68673 117.601 6.42007 116.695 6.42007C116.135 6.42007 115.635 6.54007 115.195 6.78007C114.768 7.02007 114.428 7.3734 114.175 7.84007C113.935 8.2934 113.815 8.8334 113.815 9.46007L113.835 10.2001C113.835 11.2134 114.088 12.0267 114.595 12.6401C115.101 13.2534 115.828 13.5601 116.775 13.5601C117.561 13.5601 118.195 13.3801 118.675 13.0201C119.155 12.6601 119.481 12.1534 119.655 11.5001H121.695C121.468 12.5934 120.955 13.4867 120.155 14.1801C119.368 14.8601 118.255 15.2001 116.815 15.2001C115.748 15.2001 114.835 14.9734 114.075 14.5201C113.328 14.0534 112.761 13.4201 112.375 12.6201C111.988 11.8201 111.795 10.9134 111.795 9.90007C111.795 8.84674 111.995 7.94007 112.395 7.18007C112.808 6.42007 113.381 5.84007 114.115 5.44007C114.861 5.02674 115.715 4.82007 116.675 4.82007C117.688 4.82007 118.568 5.0134 119.315 5.40007C120.061 5.78673 120.635 6.3534 121.035 7.10007C121.448 7.8334 121.655 8.70674 121.655 9.72007V10.4201H113.555V9.08007H120.635Z" fill="white"/>
<path d="M106.645 15.2001C105.619 15.2001 104.745 15.0534 104.025 14.7601C103.319 14.4534 102.779 14.0134 102.405 13.4401C102.032 12.8534 101.845 12.1534 101.845 11.3401H103.905C103.905 12.1001 104.139 12.6734 104.605 13.0601C105.085 13.4334 105.772 13.6201 106.665 13.6201C107.345 13.6201 107.845 13.5134 108.165 13.3001C108.485 13.0867 108.645 12.7534 108.645 12.3001C108.645 11.9934 108.539 11.7467 108.325 11.5601C108.125 11.3601 107.792 11.1867 107.325 11.0401L104.565 10.2601C103.885 10.0601 103.319 9.7534 102.865 9.34007C102.425 8.9134 102.205 8.3334 102.205 7.60007C102.205 7.0134 102.365 6.5134 102.685 6.10007C103.005 5.68673 103.459 5.3734 104.045 5.16007C104.645 4.9334 105.352 4.82007 106.165 4.82007C107.525 4.82007 108.585 5.12007 109.345 5.72007C110.105 6.30674 110.485 7.14674 110.485 8.24007H108.425C108.425 7.6534 108.232 7.20007 107.845 6.88007C107.459 6.56007 106.905 6.40007 106.185 6.40007C105.599 6.40007 105.132 6.50674 104.785 6.72007C104.439 6.9334 104.265 7.2134 104.265 7.56007C104.265 7.86673 104.372 8.12007 104.585 8.32007C104.812 8.52007 105.152 8.68674 105.605 8.82007L107.945 9.46007C108.839 9.70007 109.525 10.0467 110.005 10.5001C110.485 10.9534 110.725 11.5667 110.725 12.3401C110.725 12.9401 110.565 13.4601 110.245 13.9001C109.939 14.3267 109.485 14.6534 108.885 14.8801C108.285 15.0934 107.539 15.2001 106.645 15.2001Z" fill="white"/>
<path d="M94.1815 15.2C93.3949 15.2 92.7215 15.0334 92.1615 14.7C91.6015 14.3667 91.1749 13.88 90.8815 13.24C90.5882 12.5867 90.4415 11.8 90.4415 10.88V5.02002H92.5215V10.64C92.5215 11.64 92.7082 12.3534 93.0815 12.78C93.4549 13.2067 94.0615 13.42 94.9015 13.42C95.5949 13.42 96.1949 13.2534 96.7015 12.92C97.2082 12.5867 97.5949 12.1 97.8615 11.46C98.1415 10.8067 98.2815 10.0334 98.2815 9.14002V5.02002H100.342V15H98.2815V13.42V12.06H98.3615C98.1349 13.0334 97.6615 13.8 96.9415 14.36C96.2215 14.92 95.3015 15.2 94.1815 15.2Z" fill="white"/>
<path d="M78.2625 10.0001C78.2625 8.98674 78.4891 8.0934 78.9425 7.32007C79.3958 6.5334 80.0291 5.92007 80.8425 5.48007C81.6558 5.04007 82.5891 4.82007 83.6424 4.82007C84.6824 4.82007 85.6091 5.04007 86.4224 5.48007C87.2358 5.92007 87.8691 6.5334 88.3224 7.32007C88.7758 8.10673 89.0024 9.00007 89.0024 10.0001C89.0024 11.0134 88.7758 11.9134 88.3224 12.7001C87.8691 13.4867 87.2358 14.1001 86.4224 14.5401C85.6091 14.9801 84.6824 15.2001 83.6424 15.2001C82.5891 15.2001 81.6558 14.9801 80.8425 14.5401C80.0291 14.1001 79.3958 13.4867 78.9425 12.7001C78.4891 11.9134 78.2625 11.0134 78.2625 10.0001ZM80.3224 10.0001C80.3224 10.6534 80.4491 11.2401 80.7025 11.7601C80.9691 12.2667 81.3491 12.6734 81.8425 12.9801C82.3491 13.2734 82.9491 13.4201 83.6424 13.4201C84.3224 13.4201 84.9091 13.2734 85.4025 12.9801C85.9091 12.6734 86.2891 12.2667 86.5424 11.7601C86.7958 11.2401 86.9224 10.6534 86.9224 10.0001C86.9224 9.34674 86.7958 8.76674 86.5424 8.26007C86.2891 7.7534 85.9091 7.3534 85.4025 7.06007C84.9091 6.7534 84.3224 6.60007 83.6424 6.60007C82.9491 6.60007 82.3491 6.7534 81.8425 7.06007C81.3491 7.3534 80.9691 7.7534 80.7025 8.26007C80.4491 8.76674 80.3224 9.34674 80.3224 10.0001Z" fill="white"/>
<path d="M66.9197 0.300049H68.9797V6.60005V7.98005H68.8997C69.1263 6.99338 69.593 6.22005 70.2997 5.66005C71.0197 5.10005 71.9463 4.82005 73.0797 4.82005C73.853 4.82005 74.5197 4.98672 75.0797 5.32005C75.6397 5.65338 76.0663 6.14672 76.3597 6.80005C76.6663 7.44005 76.8197 8.22005 76.8197 9.14005V15H74.7397V9.38005C74.7397 8.39338 74.553 7.68672 74.1797 7.26005C73.8063 6.82005 73.1997 6.60005 72.3597 6.60005C71.653 6.60005 71.0463 6.76672 70.5397 7.10005C70.0463 7.43338 69.6597 7.92672 69.3797 8.58005C69.113 9.22005 68.9797 9.98672 68.9797 10.88V15H66.9197V0.300049Z" fill="white"/>
<path d="M58.9264 5.02002H61.0064V6.60002L60.6264 7.92002H61.1864C61.3864 7.02669 61.7797 6.32002 62.3664 5.80002C62.9531 5.28002 63.7197 5.02002 64.6664 5.02002H65.9264V6.80002H64.0264C63.3864 6.80002 62.8397 6.96002 62.3864 7.28002C61.9464 7.58669 61.6064 8.04002 61.3664 8.64002C61.1264 9.24002 61.0064 9.96669 61.0064 10.82V15H58.9264V5.02002Z" fill="white"/>
<path d="M56.2072 9.08007L55.2272 10.0401V9.40007C55.2272 8.46673 54.9605 7.74007 54.4272 7.22007C53.8939 6.68673 53.1739 6.42007 52.2672 6.42007C51.7072 6.42007 51.2072 6.54007 50.7672 6.78007C50.3405 7.02007 50.0005 7.3734 49.7472 7.84007C49.5072 8.2934 49.3872 8.8334 49.3872 9.46007L49.4072 10.2001C49.4072 11.2134 49.6605 12.0267 50.1672 12.6401C50.6739 13.2534 51.4005 13.5601 52.3472 13.5601C53.1339 13.5601 53.7672 13.3801 54.2472 13.0201C54.7272 12.6601 55.0539 12.1534 55.2272 11.5001H57.2672C57.0405 12.5934 56.5272 13.4867 55.7272 14.1801C54.9405 14.8601 53.8272 15.2001 52.3872 15.2001C51.3205 15.2001 50.4072 14.9734 49.6472 14.5201C48.9005 14.0534 48.3339 13.4201 47.9472 12.6201C47.5605 11.8201 47.3672 10.9134 47.3672 9.90007C47.3672 8.84674 47.5672 7.94007 47.9672 7.18007C48.3805 6.42007 48.9539 5.84007 49.6872 5.44007C50.4339 5.02674 51.2872 4.82007 52.2472 4.82007C53.2605 4.82007 54.1405 5.0134 54.8872 5.40007C55.6339 5.78673 56.2072 6.3534 56.6072 7.10007C57.0205 7.8334 57.2272 8.70674 57.2272 9.72007V10.4201H49.1272V9.08007H56.2072Z" fill="white"/>
<path d="M38.1338 0.300049H40.1938V9.18005H40.1138L44.8138 5.02005H47.4538L41.2938 10.56L41.3338 9.14005L47.3938 15H44.7938L40.1138 10.5H40.1938V15H38.1338V0.300049Z" fill="white"/>
<path d="M26.4382 10.0001C26.4382 9.00007 26.6449 8.10673 27.0582 7.32007C27.4849 6.5334 28.0916 5.92007 28.8782 5.48007C29.6649 5.04007 30.5849 4.82007 31.6382 4.82007C32.4116 4.82007 33.1516 4.96674 33.8582 5.26007C34.5649 5.5534 35.1582 6.00673 35.6382 6.62007C36.1316 7.2334 36.4182 7.9934 36.4982 8.90007H34.4182C34.2982 8.1134 33.9849 7.5334 33.4782 7.16007C32.9849 6.78674 32.3716 6.60007 31.6382 6.60007C30.9716 6.60007 30.3982 6.74673 29.9182 7.04007C29.4516 7.3334 29.0982 7.74007 28.8582 8.26007C28.6182 8.76674 28.4982 9.34674 28.4982 10.0001C28.4982 10.6534 28.6182 11.2401 28.8582 11.7601C29.0982 12.2801 29.4516 12.6867 29.9182 12.9801C30.3982 13.2734 30.9716 13.4201 31.6382 13.4201C32.3716 13.4201 32.9849 13.2334 33.4782 12.8601C33.9849 12.4867 34.2982 11.9067 34.4182 11.1201H36.4982C36.4182 12.0267 36.1316 12.7867 35.6382 13.4001C35.1582 14.0134 34.5649 14.4667 33.8582 14.7601C33.1516 15.0534 32.4116 15.2001 31.6382 15.2001C30.5849 15.2001 29.6649 14.9801 28.8782 14.5401C28.0916 14.0867 27.4849 13.4734 27.0582 12.7001C26.6449 11.9134 26.4382 11.0134 26.4382 10.0001Z" fill="white"/>
<path d="M15.0276 12.2401C15.0276 11.4001 15.3009 10.7334 15.8476 10.2401C16.3943 9.7334 17.2743 9.42007 18.4876 9.30007L22.2476 8.94007C22.1943 8.08673 21.9676 7.46674 21.5676 7.08007C21.1676 6.68007 20.5409 6.48007 19.6876 6.48007C18.9809 6.48007 18.4143 6.6534 17.9876 7.00007C17.5609 7.34674 17.3143 7.88674 17.2476 8.62007H15.2476C15.3143 7.84674 15.5343 7.1734 15.9076 6.60007C16.2943 6.02673 16.8143 5.58673 17.4676 5.28007C18.1209 4.9734 18.8809 4.82007 19.7476 4.82007C20.7076 4.82007 21.5276 5.00007 22.2076 5.36007C22.8876 5.72007 23.4076 6.24007 23.7676 6.92007C24.1276 7.58674 24.3076 8.38007 24.3076 9.30007V13.2201H25.7676V15.0001H23.8676C23.4676 15.0001 23.1543 14.8934 22.9276 14.6801C22.7009 14.4534 22.5876 14.1401 22.5876 13.7401V13.3201V12.2401H22.6676C22.5209 12.8001 22.2809 13.3001 21.9476 13.7401C21.6276 14.1801 21.1743 14.5334 20.5876 14.8001C20.0143 15.0667 19.3009 15.2001 18.4476 15.2001C17.1409 15.2001 16.2409 14.8934 15.7476 14.2801C15.2676 13.6667 15.0276 12.9867 15.0276 12.2401ZM17.0676 11.9601C17.0676 12.4667 17.2209 12.8534 17.5276 13.1201C17.8476 13.3867 18.2809 13.5201 18.8276 13.5201C19.4943 13.5201 20.0809 13.3801 20.5876 13.1001C21.1076 12.8201 21.5143 12.4334 21.8076 11.9401C22.1009 11.4467 22.2476 10.8867 22.2476 10.2601L18.8476 10.6401C18.7676 10.6401 18.6809 10.6534 18.5876 10.6801C18.0543 10.7467 17.6676 10.8801 17.4276 11.0801C17.1876 11.2667 17.0676 11.5601 17.0676 11.9601Z" fill="white"/>
<path d="M12.98 7.1399V8.9999H1.78V7.1399H12.98ZM3.52 0.899902V14.9999H1.38V0.899902H3.52ZM13.38 0.899902V14.9999H11.24V0.899902H13.38Z" fill="white"/>
</svg>
